HIERARCHY
ROOT RootJoint
{
    OFFSET   0.000000   0.000000   0.000000
    CHANNELS 6 Xposition Yposition Zposition Xrotation Yrotation Zrotation
    JOINT pelvis_lowerback
    {
        OFFSET   0.000000   0.093605   0.000000
        CHANNELS 3 Xrotation Yrotation Zrotation
        JOINT lowerback_torso
        {
            OFFSET   0.000000   0.100000   0.000000
            CHANNELS 3 Xrotation Yrotation Zrotation
            JOINT torso_head
            {
                OFFSET   0.000000   0.282350   0.000000
                CHANNELS 3 Xrotation Yrotation Zrotation
                End Site
                {
                    OFFSET   0.000000   0.192650   0.000000
                }
            }
            JOINT rTorso_Clavicle
            {
                OFFSET  -0.001000   0.157500   0.000000
                CHANNELS 3 Xrotation Yrotation Zrotation
                JOINT rShoulder
                {
                    OFFSET  -0.117647   0.000000   0.000000
                    CHANNELS 3 Xrotation Yrotation Zrotation
                    JOINT rElbow
                    {
                        OFFSET  -0.245000   0.000000   0.000000
                        CHANNELS 3 Xrotation Yrotation Zrotation
                        JOINT rWrist
                        {
                            OFFSET  -0.240000   0.000000   0.000000
                            CHANNELS 3 Xrotation Yrotation Zrotation
                            End Site
                            {
                                OFFSET  -0.116353  -0.002500   0.000000
                            }
                        }
                    }
                }
            }
            JOINT lTorso_Clavicle
            {
                OFFSET   0.001000   0.157500   0.000000
                CHANNELS 3 Xrotation Yrotation Zrotation
                JOINT lShoulder
                {
                    OFFSET   0.117647   0.000000   0.000000
                    CHANNELS 3 Xrotation Yrotation Zrotation
                    JOINT lElbow
                    {
                        OFFSET   0.245000   0.000000   0.000000
                        CHANNELS 3 Xrotation Yrotation Zrotation
                        JOINT lWrist
                        {
                            OFFSET   0.240000   0.000000   0.000000
                            CHANNELS 3 Xrotation Yrotation Zrotation
                            End Site
                            {
                                OFFSET   0.116353  -0.002500   0.000000
                            }
                        }
                    }
                }
            }
        }
    }
    JOINT rHip
    {
        OFFSET  -0.100000  -0.051395   0.000000
        CHANNELS 3 Xrotation Yrotation Zrotation
        JOINT rKnee
        {
            OFFSET   0.000000  -0.410000   0.000000
            CHANNELS 3 Xrotation Yrotation Zrotation
            JOINT rAnkle
            {
                OFFSET   0.000000  -0.390000   0.000000
                CHANNELS 3 Xrotation Yrotation Zrotation
                JOINT rToeJoint
                {
                    OFFSET   0.000000  -0.050000   0.130000
                    CHANNELS 3 Xrotation Yrotation Zrotation
                    End Site
                    {
                        OFFSET  -0.010000   0.002000   0.060000
                    }
                }
            }
        }
    }
    JOINT lHip
    {
        OFFSET   0.100000  -0.051395   0.000000
        CHANNELS 3 Xrotation Yrotation Zrotation
        JOINT lKnee
        {
            OFFSET   0.000000  -0.410000   0.000000
            CHANNELS 3 Xrotation Yrotation Zrotation
            JOINT lAnkle
            {
                OFFSET   0.000000  -0.390000   0.000000
                CHANNELS 3 Xrotation Yrotation Zrotation
                JOINT lToeJoint
                {
                    OFFSET   0.000000  -0.050000   0.130000
                    CHANNELS 3 Xrotation Yrotation Zrotation
                    End Site
                    {
                        OFFSET   0.010000   0.002000   0.060000
                    }
                }
            }
        }
    }
}
MOTION
Frames: 15
Frame Time:   0.008333
 -2.392046   0.918482   3.983992   1.220446   3.415311   0.872758  -0.718771   1.232065  -0.437169   0.040464  -2.244669  -0.480788   1.377815  -0.622267  -2.604968  -3.515525  -4.193037 -19.384231  -0.335736   0.068354  -0.708496  -0.000182   2.107842  -0.000372   4.027325   0.880903   4.538377  -4.714691   1.745527  18.949537   3.072261  -2.601749   0.548874  -0.000455  -3.393316   0.001307   5.505376  -2.823298  -8.857678   3.693678  -1.809181  -4.150931   1.792486  -0.000028  -0.000137  -5.928358  -4.691861   3.411878  -0.821842   0.000001   0.000105   0.952159  -0.770524   0.732084   3.537733  -0.000000   0.000191  -5.619454   2.204052   1.018408  -0.204429   0.000027  -0.000118
 -2.392243   0.918500   3.983951   1.226198   3.335272   0.864129  -0.635298   1.226213  -0.410000  -0.028752  -2.234647  -0.489753   1.417166  -0.615997  -2.623116  -3.607104  -4.157430 -19.203583  -0.650942   0.120775  -0.749357  -0.000249   2.020979  -0.000577   4.006687   0.919586   4.629373  -4.765490   1.767024  18.838406   2.779417  -2.575430   0.562304  -0.000419  -3.287175   0.001364   5.493679  -2.844763  -8.884528   3.632766  -1.814051  -4.135151   1.865721  -0.000033  -0.000166  -5.944561  -4.601500   3.393892  -0.833335  -0.000000   0.000084   0.973314  -0.766606   0.750274   3.499948   0.000005   0.000178  -5.607206   2.281089   1.023448  -0.204423   0.000022  -0.000095
 -2.392426   0.918513   3.983941   1.232297   3.254865   0.856192  -0.557484   1.219701  -0.384393  -0.095128  -2.224046  -0.498426   1.453876  -0.610118  -2.640489  -3.694418  -4.124354 -19.031625  -0.946490   0.168390  -0.786341  -0.000294   1.938237  -0.000712   3.982328   0.946253   4.706666  -4.815013   1.790378  18.731513   2.505165  -2.547482   0.573721  -0.000389  -3.186490   0.001377   5.480137  -2.859039  -8.895895   3.576212  -1.816026  -4.121751   1.934969  -0.000036  -0.000185  -5.964325  -4.514282   3.387799  -0.840449  -0.000000   0.000067   0.993796  -0.760521   0.767056   3.467526   0.000008   0.000163  -5.599909   2.356302   1.027201  -0.204250   0.000017  -0.000076
 -2.392597   0.918521   3.983959   1.239313   3.177615   0.849119  -0.486116   1.212827  -0.360829  -0.158515  -2.214467  -0.506779   1.488251  -0.604729  -2.656717  -3.776529  -4.095312 -18.869512  -1.222337   0.211362  -0.819564  -0.000321   1.860306  -0.000790   3.959163   0.967249   4.780845  -4.861820   1.813918  18.630158   2.249139  -2.519856   0.583327  -0.000362  -3.091831   0.001355   5.467627  -2.868897  -8.906289   3.524001  -1.816935  -4.109690   1.999099  -0.000037  -0.000193  -5.984793  -4.431815   3.382107  -0.846141  -0.000000   0.000054   1.013631  -0.753766   0.782362   3.437719   0.000010   0.000149  -5.595565   2.427685   1.030165  -0.203882   0.000014  -0.000061
 -2.392757   0.918526   3.984002   1.247299   3.104257   0.842874  -0.420702   1.205674  -0.339186  -0.219048  -2.206173  -0.514901   1.520339  -0.599734  -2.671866  -3.853707  -4.069884 -18.717305  -1.479787   0.250133  -0.849778  -0.000333   1.786976  -0.000825   3.937243   0.984229   4.853115  -4.905822   1.836861  18.534517   2.010142  -2.493162   0.591605  -0.000336  -3.003071   0.001307   5.456003  -2.876138  -8.917546   3.475680  -1.817259  -4.098887   2.058546  -0.000037  -0.000194  -6.005822  -4.354302   3.376810  -0.850694  -0.000000   0.000043   1.032774  -0.746815   0.796240   3.409737   0.000011   0.000135  -5.593407   2.494973   1.032551  -0.203367   0.000011  -0.000048
 -2.392904   0.918529   3.984067   1.256202   3.034834   0.837369  -0.360655   1.198297  -0.319333  -0.276741  -2.199130  -0.522826   1.550238  -0.595085  -2.686004  -3.926192  -4.047549 -18.574795  -1.720074   0.285191  -0.877544  -0.000333   1.718031  -0.000830   3.916475   0.997948   4.923188  -4.947093   1.858847  18.444579   1.787039  -2.467653   0.598911  -0.000311  -2.919952   0.001241   5.445103  -2.881706  -8.929450   3.430860  -1.817163  -4.089236   2.113682  -0.000036  -0.000190  -6.027214  -4.281568   3.371909  -0.854336  -0.000000   0.000034   1.051171  -0.739824   0.808796   3.383287   0.000012   0.000123  -5.593028   2.558278   1.034458  -0.202757   0.000009  -0.000039
 -2.393041   0.918528   3.984150   1.265959   2.969211   0.832512  -0.305413   1.190749  -0.301158  -0.331584  -2.193236  -0.530574   1.578077  -0.590753  -2.699199  -3.994212  -4.027850 -18.441645  -1.944346   0.316975  -0.903277  -0.000325   1.653261  -0.000813   3.896776   1.008964   4.990706  -4.985748   1.879702  18.360233   1.578767  -2.443438   0.605509  -0.000286  -2.842178   0.001165   5.434824  -2.886131  -8.941591   3.389204  -1.816724  -4.080635   2.164811  -0.000034  -0.000182  -6.048780  -4.213358   3.367406  -0.857250  -0.000000   0.000027   1.068771  -0.732857   0.820139   3.358212   0.000012   0.000111  -5.594142   2.617799   1.035960  -0.202098   0.000007  -0.000031
 -2.393156   0.918526   3.984232   1.257035   2.890593   0.829378  -0.227747   1.183989  -0.284354  -0.374153  -2.184188  -0.531681   1.590658  -0.587404  -2.707194  -4.074171  -3.995692 -18.305504  -2.236228   0.350990  -0.948417  -0.000362   1.522067  -0.001026   3.875189   1.051980   5.027731  -5.030739   1.907542  18.257840   1.317204  -2.401841   0.621245  -0.000273  -2.752793   0.001164   5.423933  -2.907629  -8.899682   3.360445  -1.816319  -4.075521   2.225405  -0.000033  -0.000188  -6.074984  -4.132254   3.365577  -0.859581  -0.000000   0.000022   1.110275  -0.721169   0.828546   3.328768   0.000012   0.000106  -5.596320   2.685313   1.041332  -0.200863   0.000005  -0.000025
 -2.393257   0.918523   3.984318   1.248776   2.813864   0.826617  -0.152725   1.176088  -0.267315  -0.411495  -2.175684  -0.532049   1.603733  -0.584702  -2.713205  -4.150928  -3.969525 -18.179003  -2.509422   0.378174  -0.991692  -0.000381   1.396136  -0.001152   3.853723   1.072042   5.054576  -5.075178   1.939540  18.158013   1.072497  -2.357461   0.633535  -0.000262  -2.666836   0.001139   5.413238  -2.918071  -8.852570   3.332830  -1.814578  -4.071691   2.283776  -0.000031  -0.000189  -6.100797  -4.054591   3.364524  -0.861446  -0.000000   0.000018   1.149940  -0.708819   0.835632   3.301662   0.000011   0.000100  -5.599567   2.750233   1.046140  -0.199788   0.000004  -0.000020
 -2.393346   0.918518   3.984409   1.242153   2.740826   0.824172  -0.081974   1.167612  -0.250860  -0.445909  -2.168549  -0.532426   1.616946  -0.582294  -2.718270  -4.223801  -3.948766 -18.061234  -2.764453   0.400504  -1.032358  -0.000386   1.277177  -0.001211   3.834040   1.081306   5.078502  -5.117684   1.972708  18.062838   0.844070  -2.313197   0.643623  -0.000252  -2.585384   0.001093   5.404091  -2.921084  -8.809306   3.306557  -1.812254  -4.068723   2.338206  -0.000029  -0.000186  -6.125583  -3.981460   3.363916  -0.862938  -0.000000   0.000014   1.186934  -0.696586   0.841701   3.276187   0.000011   0.000094  -5.603395   2.811560   1.050444  -0.198824   0.000003  -0.000016
 -2.393426   0.918513   3.984506   1.237049   2.671626   0.822014  -0.015765   1.158777  -0.235440  -0.478183  -2.162773  -0.532997   1.629810  -0.580087  -2.722766  -4.292690  -3.931981 -17.951436  -3.002527   0.419233  -1.070424  -0.000379   1.165199  -0.001221   3.815765   1.084401   5.101082  -5.157935   2.005469  17.972939   0.630836  -2.270262   0.652348  -0.000240  -2.508647   0.001035   5.396033  -2.919786  -8.769872   3.281731  -1.809569  -4.066439   2.388755  -0.000027  -0.000179  -6.149364  -3.912770   3.363632  -0.864132  -0.000000   0.000011   1.221501  -0.684636   0.846915   3.252063   0.000010   0.000087  -5.607676   2.869318   1.054321  -0.197950   0.000003  -0.000013
 -2.393497   0.918507   3.984608   1.233242   2.606136   0.820114   0.045982   1.149693  -0.221237  -0.508640  -2.158227  -0.533823   1.642089  -0.578044  -2.726864  -4.357603  -3.918116 -17.849063  -3.224774   0.435239  -1.106047  -0.000365   1.060018  -0.001196   3.798645   1.083552   5.122624  -5.195838   2.036999  17.888465   0.431774  -2.229256   0.660182  -0.000227  -2.436600   0.000969   5.388733  -2.916084  -8.733340   3.258373  -1.806614  -4.064740   2.435708  -0.000025  -0.000169  -6.172204  -3.848282   3.363624  -0.865086  -0.000000   0.000009   1.253890  -0.673013   0.851381   3.229216   0.000009   0.000080  -5.612367   2.923679   1.057816  -0.197163   0.000002  -0.000010
 -2.393560   0.918500   3.984715   1.230541   2.544179   0.818450   0.103488   1.140445  -0.208303  -0.537438  -2.154769  -0.534929   1.653680  -0.576147  -2.730650  -4.418632  -3.906447 -17.753664  -3.432246   0.449135  -1.139423  -0.000344   0.961364  -0.001148   3.782516   1.080083   5.143141  -5.231405   2.066879  17.809340   0.245936  -2.190466   0.667397  -0.000213  -2.369106   0.000898   5.381985  -2.911125  -8.699004   3.236448  -1.803441  -4.063566   2.479345  -0.000022  -0.000158  -6.194143  -3.787746   3.363871  -0.865850  -0.000000   0.000007   1.284286  -0.661732   0.855167   3.207604   0.000009   0.000074  -5.617420   2.974834   1.060960  -0.196466   0.000002  -0.000008
 -2.393628   0.918493   3.984822   1.228662   2.484576   0.816854   0.149825   1.137440  -0.203430  -0.544484  -2.146477  -0.526598   1.652951  -0.576694  -2.734757  -4.471478  -3.904076 -17.638466  -3.639019   0.446283  -1.209679  -0.000324   0.839619  -0.001136   3.764632   1.097919   5.132950  -5.256845   2.099988  17.712692   0.116339  -2.148936   0.703486  -0.000193  -2.312836   0.000781   5.382235  -2.914118  -8.633999   3.214447  -1.807425  -4.062147   2.521277  -0.000020  -0.000150  -6.215580  -3.722468   3.364228  -0.866461  -0.000000   0.000006   1.314403  -0.651838   0.859254   3.184126   0.000008   0.000069  -5.621098   3.025057   1.063186  -0.195837   0.000001  -0.000007
 -2.393695   0.918486   3.984928   1.227870   2.428956   0.815313   0.194456   1.134958  -0.199662  -0.549346  -2.138946  -0.518298   1.653194  -0.576976  -2.738375  -4.522720  -3.907590 -17.530847  -3.832190   0.438247  -1.276678  -0.000301   0.723078  -0.001100   3.748793   1.099756   5.112689  -5.281260   2.134629  17.622195  -0.004256  -2.107404   0.737873  -0.000175  -2.259434   0.000678   5.385056  -2.913754  -8.563815   3.193284  -1.811346  -4.060470   2.560431  -0.000019  -0.000141  -6.236022  -3.661343   3.364233  -0.866950  -0.000000   0.000005   1.342216  -0.642653   0.863378   3.161566   0.000008   0.000065  -5.624611   3.072014   1.065332  -0.195135   0.000001  -0.000005
